<svg version="1" xmlns="http://www.w3.org/2000/svg" width="682.667" height="682.667" viewBox="0 0 512.000000 512.000000"><path d="M248.5 1.1c-1.1.6-9.7 8.8-19.1 18.1l-17.1 16.9-6.9-3c-8.7-3.7-21.6-9-31.9-13.1-9.2-3.6-13.2-3.4-19.2.9-4.7 3.4-4.2 2.5-17.9 36.1-1.9 4.7-3.9 9.2-4.3 10-.7 1.3-5 1.6-25.7 2-23.8.5-25.1.6-28.6 2.8-2 1.3-4.7 4-6 6-2.2 3.5-2.3 4.8-2.8 28.6-.4 20.7-.7 25-2 25.7-.8.4-5.3 2.4-10 4.3-33.6 13.7-32.7 13.2-36.1 17.9-4.3 6-4.5 10-.9 19.2 4.1 10.3 9.4 23.2 13.1 31.9l3 6.9-16.9 17.1c-9.4 9.4-17.5 18.1-18.1 19.3-1.4 2.8-1.4 10.3 0 14 .6 1.5 8.6 10.4 17.9 19.8l16.9 17-2.5 6c-1.4 3.3-3.4 8.2-4.5 11-1 2.7-2.5 6.1-3.3 7.5-.7 1.4-2.3 5.4-3.6 9-1.3 3.6-2.7 6.9-3.1 7.5-2 2.7-2 8.4-.1 12.6 3.3 7.3 6.3 9.3 27.7 17.8 2.8 1.1 8.8 3.6 13.5 5.5l8.5 3.4.6 25.9c.3 14.2.6 25.9.7 26 3 3.7 7 7.7 8.6 8.6 1.4.8 10.3 1.4 27.6 1.7l25.4.5 4.4 10.5c2.4 5.8 4.9 12.1 5.7 14.1.7 2 2.5 6.2 3.9 9.3 1.4 3.1 2.6 6.1 2.6 6.6 0 1.8 5.4 7.1 9.1 9 6.8 3.5 8.1 3.2 38.4-9.5 6.1-2.5 12.3-5.1 13.9-5.7 2.7-1 3.2-.7 19.5 15.5 9.1 9 17.6 17 18.8 17.6 1.2.6 5.2 1.1 8.9 1.1h6.8l17.7-17.6 17.7-17.6 4.4 1.5c2.3.9 9.3 3.7 15.3 6.2 19.6 8.2 25.9 10.5 29.3 10.5 3.7 0 9.8-2.8 12.4-5.7 1.6-1.7 5.5-10.4 9.9-21.8 1.1-2.8 2.4-5.9 3-6.9.6-1 2.2-4.9 3.6-8.5 1.4-3.6 2.9-7.2 3.5-7.9.8-.9 7.2-1.2 25.6-1.2 23.1 0 24.7-.1 27.9-2.1 1.8-1.2 4.5-3.7 5.8-5.7 2.5-3.7 2.5-3.8 2.5-28.3 0-18.5.3-24.9 1.3-25.7.6-.6 4.2-2.1 7.8-3.5 3.6-1.4 7.5-3 8.5-3.6 1-.6 4.2-1.9 6.9-3 11.4-4.4 20.1-8.3 21.8-9.9 2.9-2.6 5.7-8.7 5.7-12.4 0-3.4-2.3-9.7-10.5-29.3-2.5-6.1-5.3-13-6.2-15.3l-1.5-4.4 17.6-17.7 17.6-17.7v-6.8c0-3.7-.5-7.7-1.1-8.9-.6-1.2-8.6-9.7-17.6-18.8-16.2-16.3-16.5-16.8-15.5-19.5.6-1.6 3.2-7.9 5.7-13.9 12.4-29.7 12.8-31.1 10-37.7-1.4-3.4-7.6-9.8-9.5-9.8-.5 0-3.5-1.2-6.6-2.6-3.1-1.4-7.3-3.2-9.3-3.9-2-.8-8.3-3.3-14.1-5.7l-10.5-4.4-.5-25.9c-.3-14.3-.7-26.1-.8-26.2-.1-.1-1.6-1.8-3.3-3.8-1.8-2-4.1-4.1-5.3-4.8-1.4-.8-10.3-1.4-27.4-1.7l-25.4-.5-3.4-8.5c-1.9-4.7-4.4-10.8-5.5-13.5-8.5-21.2-10.5-24.4-17.4-27.6-4.7-2.2-8.1-2.4-11.5-.6-1.4.7-5.4 2.4-9 3.7-3.6 1.3-7 2.7-7.5 3.1-.6.4-4 1.9-7.5 3.2-3.6 1.4-9.2 3.6-12.5 5.1l-6 2.5-17-16.9c-9.3-9.3-18.3-17.3-19.8-17.9-3.6-1.4-11.6-1.4-14.2 0zM272 153c23.6 2.3 47.9 12.2 57.8 23.4 7.2 8.3 4.8 21.6-5.2 27.7-4.4 2.7-6 2.4-15.1-2.2-4.4-2.3-11.8-6.1-16.5-8.5-11-5.6-16.6-6.8-32.5-6.8-14.6-.1-21.5 1.5-28.7 6.3-5.4 3.6-8.3 7.6-9.8 13.2-2.2 8 .3 15.6 6.6 20.4 4.2 3.2 18.5 8.8 27 10.5 11.8 2.3 32.1 8.1 41.4 11.7 23.7 9.2 34.9 20.1 38.6 37.4 2.9 13.6.4 29.2-6.3 39.9-13.4 21.2-40.1 33-75 33-7.2 0-15.3-.4-18-1-2.6-.5-9.5-1.9-15.3-2.9-17.3-3.3-34.2-11.3-42.5-20-2.5-2.7-3-4.1-3.3-10-.5-8.2 1.9-13.7 7.1-17 5.3-3.3 8.9-2.7 20.3 3.4 13.6 7.1 21.5 10.2 30.9 12 9.1 1.8 29.2 2 38.2.4 16.8-2.9 27.3-17.8 21.1-29.9-4.3-8.3-16.4-13.8-42.9-19.4-41.5-8.8-60.8-20.5-68.3-41.4-2.2-6.1-2.6-9-2.6-17.8 0-9.2.4-11.4 3-18.3 4-10.3 7.7-15.7 16.3-23.7 17-15.7 44.5-23.3 73.7-20.4z"/></svg>